<?xml version="1.0" encoding="UTF-8" standalone="no"?>
<!DOCTYPE svg PUBLIC "-//W3C//DTD SVG 1.1//EN" "http://www.w3.org/Graphics/SVG/1.1/DTD/svg11.dtd">
<!-- Created with Vectornator (http://vectornator.io/) -->
<svg height="1006.0pt" stroke-miterlimit="10" style="fill-rule:nonzero;clip-rule:evenodd;stroke-linecap:round;stroke-linejoin:round;" version="1.1" viewBox="0 0 1950 1006" width="1950.0pt" xml:space="preserve" xmlns="http://www.w3.org/2000/svg" xmlns:xlink="http://www.w3.org/1999/xlink">
<defs/>
<clipPath id="ArtboardFrame">
<rect height="1006" width="1950" x="0" y="0"/>
</clipPath>
<g clip-path="url(#ArtboardFrame)" id="path1">
<path d="M794.554 1005.08C772.75 1001.63 752.953 993.853 736.792 982.384C716.894 968.262 662.323 912.699 634.261 877.987C607.038 844.315 585.651 807.162 578.788 781.622C575.28 768.577 572.513 742.683 572.479 722.632C572.467 715.013 572.887 715.538 562.341 709.947C536.397 696.19 527.725 685.691 521.798 660.848C518.716 647.925 515.752 623.877 517.08 622.55C517.536 622.093 522.958 624.259 538.546 631.126C548.409 635.473 561.655 639.921 568.905 641.325C578.672 643.216 605.92 643.882 673.383 643.879C742.699 643.877 760.275 643.349 769.313 640.993C775.721 639.32 783.497 635.64 790.028 631.189C795.753 627.285 808.219 614.214 818.896 600.92C830.993 585.856 835.02 582.986 842.375 584.18C846.467 584.844 847.361 586.196 847.701 592.227C848.277 602.417 845.279 611.41 838.213 620.701C836.182 623.372 828.299 632.326 820.693 640.599C804.464 658.254 803.186 660.055 803.863 664.296C805.369 673.715 816.633 687.024 830.394 695.646C835.346 698.747 837.322 701.223 837.322 704.324C837.322 709.845 833.043 712.204 815.748 716.218C809.455 717.678 802.533 719.762 800.367 720.848C790.912 725.586 783.698 733.301 776.147 746.751C773.773 750.981 770.833 755.101 769.264 756.394C765.717 759.317 758.163 762.972 743.332 768.943C728.246 775.016 726.87 775.728 727.188 777.321C727.406 778.421 728.478 778.58 735.301 778.512C741.684 778.449 745.626 777.857 756.291 775.356C774.803 771.018 790.629 767.942 799.754 766.907C810.349 765.708 824.706 766.368 833.193 768.447C842.197 770.647 846.964 770.576 859.455 768.05C867.769 766.368 871.992 765.926 879.714 765.92C890.416 765.915 890.858 766.008 913.124 772.807C919.947 774.891 931.174 778.03 938.073 779.785C945.866 781.767 950.616 783.329 950.616 783.91C950.616 785.971 925.709 792.671 904.943 796.195C888.028 799.067 875.012 799.439 811.032 798.892C751.408 798.384 750.585 798.396 749.258 799.864C747.962 801.296 747.971 801.48 749.474 804.874C751.535 809.538 759.26 816.845 765.918 820.434C781.946 829.07 812.288 835.226 838.822 835.226C851.799 835.226 872.088 832.507 891.53 828.16C893.972 827.613 892.863 829.694 888.13 834.534C877.317 845.591 863.751 855.075 846.947 863.323C836.225 868.588 827.213 871.826 799.057 880.527C789.021 883.632 782.59 887.17 776.178 893.124C768.567 900.196 765.311 907.91 765.311 918.872C765.311 929.955 768.547 937.508 776.473 944.919C788.247 955.931 814.231 970.065 836.151 977.377C845.197 980.397 850.528 981.588 875.08 986.073C880.003 986.972 883.669 987.981 883.312 988.338C882.073 989.577 862.379 997.856 855.25 1000.14C841.216 1004.62 834.631 1005.63 817.438 1005.93C805.911 1006.13 799.768 1005.91 794.554 1005.08L794.554 1005.08ZM596.477 618.342C573.567 617.129 558.824 613.508 541.543 604.858C528.797 598.476 518.197 590.642 505.802 578.442C487.001 559.936 474.603 538.26 469.402 514.804C465.869 498.859 465.551 493.401 465.585 449.267C465.625 396.866 466.708 386.146 474.217 363.826C477.924 352.803 488.141 331.7 494.229 322.491C519.045 284.949 557.398 260.946 606.232 252.401C634.61 247.433 687.802 242.596 755.914 238.788C778.861 237.507 866.164 237.028 893.748 238.034C964.675 240.62 1033.48 247.175 1072.05 255.023C1105.34 261.799 1129.68 272.488 1151.03 289.707C1158.09 295.409 1171.07 308.873 1176.6 316.231C1191.43 335.995 1203.31 362.746 1207.69 386.253C1208.97 393.14 1209.09 398.275 1209.09 448.893C1209.09 503.299 1209.07 504.132 1207.4 511.643C1200.73 541.776 1183.6 570.029 1161.07 588.084C1145.26 600.752 1121.81 612.425 1105.55 615.72C1092.88 618.288 1082.73 618.617 1006.14 618.949C921.396 619.318 920.024 619.258 910.325 614.719C904.353 611.926 895.078 602.933 882.43 587.673C873.798 577.262 867.015 569.99 862.404 566.21C852.958 558.473 836.114 556.284 824.513 561.288C816.825 564.605 808.633 572.425 795.685 588.799C787.308 599.391 779.226 607.614 773.546 611.322C766.145 616.153 760.278 617.684 746.162 618.458C731.257 619.275 612.335 619.184 596.477 618.342L596.477 618.342ZM799.238 415.896C835.039 380.211 864.333 350.844 864.333 350.631C864.333 350.342 811.063 350.277 808.729 350.566C808.477 350.597 787.172 371.72 761.384 397.506C735.599 423.293 714.135 444.393 713.69 444.393C712.675 444.393 683.021 408.85 653.918 372.752C643.953 360.39 640.757 356.571 637.442 353.061L634.431 349.871L611.515 349.948C598.913 349.987 587.837 350.24 586.904 350.509C585.279 350.977 585.384 351.226 589.487 356.622C591.841 359.718 604.948 375.922 618.616 392.63C705.614 499.003 705.994 499.462 709.272 502.386C711.092 504.007 703.957 510.869 799.238 415.896L799.238 415.896ZM1049.4 500.653C1064.8 500.653 1077.41 500.401 1077.41 500.089C1077.41 499.372 1073.37 496.843 1044.4 479.42C1018.99 464.135 1014.39 461.186 1014.39 460.169C1014.39 459.808 1016.5 459.335 1019.08 459.117C1021.66 458.898 1030.04 458.195 1037.7 457.557C1045.36 456.917 1053.37 455.879 1055.49 455.249C1072.68 450.146 1086.09 437.509 1091.35 421.462C1093.35 415.346 1093.55 413.843 1093.55 404.257C1093.55 392.485 1092.88 389.247 1088.72 380.628C1080.58 363.784 1066.98 354.011 1046.28 350.118C1041.35 349.191 1029.02 348.919 977.626 348.604L914.976 348.218L839.197 424.249L763.417 500.279L818.51 500.673L853.239 466.344C872.338 447.464 897.757 422.278 909.724 410.379L931.483 388.74L989.156 389.157C1038.66 389.517 1047.08 389.735 1048.55 390.702C1049.49 391.32 1051.18 393.693 1052.3 395.978C1054.03 399.519 1054.28 400.846 1054.02 405C1053.69 410.135 1052.44 412.613 1048.77 415.349C1046.13 417.316 1036.77 417.926 995.295 418.839L961.567 419.579L950.02 431.048C936.125 444.847 927.921 453.939 928.287 455.136C928.707 456.505 936.647 461.578 967.783 480.356C1007.15 504.098 1001.79 501.609 1012.44 501.09C1017.36 500.852 1033.99 500.653 1049.4 500.653L1049.4 500.653ZM354.51 502.836C346.241 501.853 337.799 499.428 330.877 496.052C325.801 493.574 323.251 491.683 318.394 486.789C309.799 478.127 305.568 468.728 304.147 455.125L303.668 450.532L320.614 450.679C329.938 450.761 337.705 450.985 337.881 451.175C338.054 451.365 338.766 453.5 339.46 455.921C342.696 467.189 349.961 472.465 363.573 473.426C378.316 474.467 388.635 468.289 388.643 458.422C388.649 454.084 387.367 451.399 383.789 448.26C379.112 444.152 378.259 443.818 350.242 435.065C322.403 426.367 310.162 416.273 306.503 398.995C302.258 378.967 310.74 360.614 328.458 351.479C348.659 341.059 379.529 341.385 397.862 352.213C411.916 360.512 420.52 373.656 422.122 389.273L422.618 394.132L388.799 394.132L387.895 390.194C386.65 384.779 384.086 381.096 379.447 378.054C368.198 370.679 350.355 371.861 343.83 380.415C342.194 382.565 341.74 384.062 341.522 388.048C341.289 392.287 341.508 393.387 343.022 395.632C346.833 401.274 349.658 402.508 380.02 411.773C411.508 421.382 424.663 434.889 424.663 457.608C424.663 474.799 415.543 489.621 400.576 496.758C388.266 502.627 371.436 504.849 354.51 502.836L354.51 502.836ZM0.496254 468.275C0.224023 450.877-1.13687e-13 416.613-1.13687e-13 392.134L-1.13687e-13 347.62L35.2624 347.62L35.2624 405.383L43.7696 405.383C53.6606 405.383 62.0629 403.577 67.3119 400.325C71.6818 397.617 73.5959 393.77 82.8999 369.001C86.9295 358.275 90.3863 349.074 90.5848 348.558C90.8598 347.844 95.4481 347.62 109.995 347.62C128.518 347.62 129.049 347.663 129.049 349.114C129.049 350.628 118.233 378.229 111.997 392.63C107.854 402.193 102.138 413.741 98.1619 420.58L95.2127 425.649L99.1062 432.959C105.047 444.115 107.021 447.719 118.71 468.774C124.665 479.499 130.971 490.894 132.721 494.09L135.906 499.905L93.8686 499.905L89.0535 490.716C86.4049 485.66 79.4318 472.241 73.5562 460.897C67.6805 449.551 62.3153 439.76 61.6347 439.142C60.6167 438.215 58.1751 438.056 47.8304 438.238L35.2624 438.462L35.2624 499.905L0.992508 499.905L0.496254 468.275ZM158.844 499.341C158.674 499.032 158.458 464.767 158.359 423.2L158.18 347.62L190.32 347.637C239.251 347.663 246.173 348.4 257.062 354.751C261.858 357.549 269.551 364.935 273.121 370.169C283.852 385.905 285.145 407.881 276.379 425.618C273.186 432.082 264.761 440.98 258.248 444.767C256.118 446.006 254.371 447.43 254.363 447.932C254.354 448.433 259.172 456.871 265.073 466.684C278.345 488.765 283.608 497.957 283.608 499.057C283.608 499.667 277.936 499.905 263.406 499.905L243.204 499.905L239.498 493.341C237.459 489.732 233.01 481.714 229.607 475.524C226.204 469.335 221.905 461.657 220.053 458.459L216.69 452.644L195.073 452.644L195.073 499.905L177.112 499.905C167.232 499.905 159.011 499.652 158.844 499.343L158.844 499.341ZM224.857 421.136C233.639 420.208 237.144 418.782 240.785 414.646C244.409 410.532 245.651 405.822 245.183 397.997C244.665 389.304 241.094 383.736 234.181 380.841C231.436 379.69 215.122 378.419 202.764 378.394L195.073 378.377L195.073 421.887L206.515 421.873C212.808 421.864 221.063 421.532 224.857 421.133L224.857 421.136ZM1248.71 491.58C1247.72 490.597 1248.54 488.283 1261.23 456.021C1266.27 443.231 1274.7 421.793 1279.98 408.385C1285.25 394.975 1292.02 377.592 1295 369.752C1297.99 361.913 1300.91 354.569 1301.49 353.435L1302.54 351.371L1334.52 351.371L1345.87 380.067C1358.86 412.902 1366.8 433.151 1373.02 449.267C1379.08 464.986 1388.56 489.516 1389.18 491.09C1389.66 492.318 1388.55 492.403 1372.09 492.403L1354.49 492.403L1350.17 480.401L1345.84 468.397L1290.7 468.397L1288.74 473.837C1287.67 476.829 1285.73 482.23 1284.44 485.839L1282.1 492.403L1265.82 492.403C1255.01 492.403 1249.25 492.125 1248.71 491.58ZM1335.35 440.758C1336.09 440.291 1334.35 434.918 1328.02 418.102C1323.46 405.978 1319.41 395.737 1319.02 395.346C1318.08 394.407 1314.91 401.938 1304.36 430.14C1302.59 434.884 1300.9 439.358 1300.61 440.078C1300.12 441.306 1301.2 441.391 1317.24 441.379C1326.67 441.374 1334.82 441.093 1335.35 440.758ZM1407.54 492.403L1407.54 351.371L1435.11 351.419C1450.28 351.445 1467.51 351.725 1473.4 352.04L1484.11 352.613L1492.75 356.911C1499.93 360.481 1502.3 362.128 1506.8 366.639C1519.94 379.837 1523.79 400.512 1516.53 418.887C1513.04 427.725 1507.93 434.008 1498.93 440.534L1494.65 443.636L1497.71 449.077C1499.4 452.071 1505.63 462.834 1511.56 472.998C1517.48 483.163 1522.33 491.691 1522.33 491.952C1522.33 492.216 1513.85 492.337 1503.47 492.227L1484.61 492.028L1479.52 483.026C1476.72 478.073 1471.45 468.623 1467.81 462.02L1461.19 450.018L1451.06 449.619C1445.49 449.397 1440.51 449.349 1439.99 449.511C1439.27 449.738 1439.05 454.722 1439.05 471.104L1439.05 492.403L1407.54 492.403ZM1473.84 418.933C1479.81 416.599 1483.67 412.621 1485.26 407.155C1487.5 399.443 1485.67 390.512 1480.94 386.103C1476.23 381.703 1467.97 379.95 1450.68 379.678L1439.43 379.503L1439.17 392.63C1439.03 399.851 1439.15 409.253 1439.44 413.526L1439.96 421.291L1454.7 420.971C1467.83 420.688 1469.92 420.466 1473.84 418.933L1473.84 418.933ZM1548.6 421.893L1548.6 351.371L1594.36 351.371C1619.53 351.371 1640.38 351.289 1640.69 351.184C1641 351.082 1641.35 357.325 1641.46 365.063L1641.66 379.128L1611.31 379.128C1594.61 379.128 1580.84 379.381 1580.71 379.69C1580.59 379.999 1580.58 386.245 1580.7 393.568L1580.92 406.883L1635.63 406.883L1635.63 434.64L1608.32 434.64C1585.42 434.64 1580.95 434.813 1580.61 435.706C1580.38 436.293 1580.26 442.959 1580.34 450.52L1580.48 464.271L1643.91 464.662L1643.51 492.028L1548.59 492.414L1548.6 421.893ZM1668.99 491.464C1668.79 490.948 1668.71 459.216 1668.82 420.948L1669.02 351.371L1682.22 350.937L1695.43 350.501L1699.07 355.624C1701.08 358.442 1713.34 375.434 1726.33 393.381C1739.31 411.328 1751.14 427.773 1752.62 429.922C1754.09 432.074 1755.55 433.846 1755.86 433.86C1756.16 433.877 1756.5 415.238 1756.61 392.443L1756.8 350.997L1788.69 350.591L1788.69 492.437L1761.3 492.028L1744.96 469.148C1721.56 436.398 1702.3 409.911 1701.55 409.446C1701.19 409.225 1700.9 427.58 1700.9 450.724L1700.9 492.403L1685.12 492.403C1673.19 492.403 1669.26 492.173 1668.99 491.464L1668.99 491.464ZM1808.54 489.59C1814.32 474.626 1834.81 422.236 1851.58 379.503L1862.77 350.997L1872.06 351.198C1877.17 351.309 1884.43 351.589 1888.21 351.825L1895.07 352.25L1896.39 355.749C1897.11 357.674 1906.9 382.372 1918.14 410.634C1941.18 468.552 1950 491.05 1950 491.87C1950 492.179 1942.19 492.34 1932.64 492.23L1915.28 492.028L1912.76 485.278C1911.37 481.563 1909.36 476.247 1908.29 473.46L1906.35 468.397L1851.14 468.397L1846.81 480.401L1842.48 492.403L1807.46 492.403L1808.54 489.59ZM1896.73 440.787C1896.73 440.061 1888.68 418.567 1883.22 404.705C1881.07 399.23 1879.03 395.034 1878.7 395.38C1877.31 396.812 1861.47 438.09 1861.47 440.262C1861.47 441.235 1863.9 441.391 1879.1 441.391C1888.79 441.391 1896.73 441.118 1896.73 440.787ZM1173.71 275.899C1150.61 255.321 1123.67 241.329 1091.56 233.24C1052.9 223.498 976.341 215.865 876.711 211.819C866.394 211.4 853.449 210.861 847.945 210.62L837.938 210.181L838.408 177.442C839.574 96.2853 841.034 53.3623 842.979 43.0759C846.808 22.8123 864.103 7.70604 889.466 2.47498C920.301-3.89018 958.071 2.10923 996.484 19.4667C1065.25 50.544 1123.58 111.312 1156.88 186.569C1167.95 211.578 1177.21 241.437 1182.08 267.793C1184.25 279.574 1184.44 283.106 1182.88 283.106C1182.29 283.106 1178.16 279.863 1173.71 275.899Z" fill="#ffffff" fill-rule="nonzero" opacity="1" stroke="none"/>
</g>
</svg>
